<?xml version="1.0" standalone="no"?>
<!DOCTYPE svg PUBLIC "-//W3C//DTD SVG 20010904//EN"
 "http://www.w3.org/TR/2001/REC-SVG-20010904/DTD/svg10.dtd">
<svg version="1.0" xmlns="http://www.w3.org/2000/svg"
 width="249.000000pt" height="289.000000pt" viewBox="0 0 249.000000 289.000000"
 preserveAspectRatio="xMidYMid meet">

<g transform="translate(0.000000,289.000000) scale(0.100000,-0.100000)"
fill="#000000" stroke="none">
<path d="M1180 2870 c-27 -27 -40 -62 -40 -107 0 -32 -2 -35 -24 -29 -47 12
-70 -51 -42 -115 14 -33 -24 -30 -65 4 -77 66 -159 72 -187 15 -16 -34 1 -79
47 -123 l31 -29 -22 -13 c-13 -7 -37 -12 -54 -13 -60 0 -96 -13 -131 -46 -35
-34 -36 -35 -30 -94 4 -39 3 -60 -4 -60 -19 0 -59 -49 -59 -73 0 -17 -10 -28
-34 -40 -74 -35 -117 -168 -82 -251 20 -47 20 -56 2 -56 -7 0 -25 -9 -40 -21
-20 -16 -26 -29 -26 -60 0 -62 22 -94 87 -125 32 -15 60 -29 62 -30 2 -2 -8
-17 -23 -34 -30 -36 -32 -59 -10 -101 12 -25 13 -37 4 -65 -27 -79 56 -153
181 -162 39 -3 66 -9 63 -14 -3 -5 -6 -25 -6 -44 0 -19 -1 -34 -3 -34 -1 0
-40 -6 -86 -14 -46 -8 -104 -16 -129 -18 l-45 -3 -5 50 c-3 28 -14 65 -24 83
-24 46 -112 128 -162 153 -101 48 -229 43 -283 -12 -32 -31 -40 -65 -30 -117
10 -48 31 -75 109 -137 39 -31 77 -66 85 -79 11 -16 16 -59 19 -152 7 -211 56
-506 96 -572 24 -39 138 -95 245 -122 170 -41 430 -52 630 -25 160 22 145 30
145 -75 0 -73 3 -90 15 -90 8 0 15 -4 15 -10 0 -5 11 -10 25 -10 20 0 25 5 25
26 0 38 21 114 32 114 5 0 8 -29 6 -66 -2 -47 1 -68 10 -71 6 -3 12 4 13 14 0
10 3 13 6 6 11 -29 21 -9 28 53 8 76 14 77 24 3 3 -31 12 -54 20 -57 12 -4 13
14 7 115 l-6 119 37 25 c35 23 40 33 105 229 63 191 81 248 108 357 9 35 16
43 45 53 80 26 104 73 65 123 -11 14 -20 28 -20 31 0 3 27 6 60 6 107 0 167
41 158 107 l-5 38 56 0 c42 1 72 8 114 29 81 39 105 92 72 157 -15 28 -15 30
20 60 47 42 49 92 5 134 l-30 28 38 17 c58 26 102 82 102 131 0 54 -13 75 -56
89 -28 10 -34 15 -27 29 4 9 8 48 8 87 0 61 -4 77 -30 120 -42 66 -94 96 -162
91 l-51 -4 24 36 c53 78 22 153 -76 186 -46 15 -49 19 -52 53 -3 32 -7 37 -31
40 -19 2 -27 8 -24 16 13 34 17 104 8 128 -30 80 -156 26 -182 -78 -9 -36 -15
-44 -35 -44 -13 0 -32 -9 -43 -21 l-19 -20 -9 27 c-6 17 -6 42 1 64 12 48 3
70 -30 70 -21 0 -25 4 -19 18 3 9 9 37 12 62 7 61 -22 100 -74 100 -48 0 -110
-62 -119 -120 -5 -31 -11 -40 -26 -40 -11 0 -28 -4 -38 -10 -14 -8 -29 -2 -68
23 -42 26 -51 37 -51 62 -3 112 -83 183 -141 125z m77 -18 c17 -11 43 -76 43
-109 0 -21 -8 -33 -30 -45 l-30 -17 0 32 c0 18 -3 42 -6 54 -12 44 -23 11 -23
-66 0 -107 -43 -263 -80 -285 -10 -7 -61 103 -61 133 0 25 12 27 30 6 33 -39
41 3 10 50 -20 31 -28 105 -11 105 6 0 23 -12 38 -26 l28 -26 5 81 c4 57 10
87 22 101 18 21 44 25 65 12z m397 -64 c22 -31 20 -70 -5 -129 -12 -27 -19
-52 -15 -56 3 -3 18 0 33 8 16 7 31 15 36 17 4 2 7 -9 7 -25 0 -21 -12 -41
-45 -73 -25 -24 -45 -48 -45 -53 0 -5 16 -6 35 -3 19 4 35 4 35 1 0 -16 -31
-63 -59 -89 l-31 -30 0 37 c0 23 -6 39 -17 45 -13 8 -15 21 -10 83 4 64 16
106 52 192 5 12 3 17 -8 17 -15 0 -57 -89 -57 -121 0 -22 -16 -34 -25 -18 -4
5 -23 9 -44 7 -31 -3 -36 0 -39 21 -4 22 -1 24 32 18 29 -5 36 -3 36 11 0 41
25 99 55 129 39 39 58 41 79 11z m-280 -129 c14 -11 38 -40 52 -65 28 -48 35
-52 54 -29 16 19 25 19 44 -1 22 -21 20 -82 -4 -129 -11 -21 -17 -41 -15 -44
3 -3 19 3 36 13 17 10 33 16 36 13 9 -10 -17 -74 -40 -96 l-23 -21 -18 57
c-26 85 -75 171 -125 223 -60 62 -65 35 -6 -32 57 -66 103 -156 114 -228 5
-30 8 -56 6 -58 -5 -6 -89 40 -112 61 -31 28 -29 37 8 37 27 0 30 2 19 15 -7
8 -31 24 -54 34 -44 19 -84 57 -72 68 4 4 23 6 44 5 32 -1 35 0 18 11 -10 7
-32 21 -50 32 -44 29 -61 68 -46 106 7 16 20 34 29 39 27 16 77 11 105 -11z
m608 -6 c24 -22 23 -85 -2 -142 -23 -51 -20 -59 15 -43 37 17 45 15 45 -12 0
-19 -7 -26 -32 -31 -18 -4 -50 -16 -70 -26 -47 -24 -47 -19 -13 88 27 85 30
103 16 103 -5 0 -18 -24 -29 -52 -19 -51 -24 -71 -37 -151 -5 -32 -10 -38 -28
-35 -23 3 -64 56 -73 95 -11 40 2 56 40 50 34 -5 35 -5 41 36 9 54 28 90 61
116 32 25 42 26 66 4z m-1018 -26 c48 -27 74 -61 83 -107 l6 -35 -53 47 c-50
44 -90 65 -90 49 0 -4 28 -31 63 -60 65 -55 117 -116 117 -137 0 -22 -38 -37
-54 -22 -7 7 -40 29 -74 48 -34 19 -62 38 -62 43 0 4 16 7 36 7 l37 0 -67 63
c-65 62 -79 90 -54 115 19 19 69 14 112 -11z m281 -137 c4 -11 21 -40 39 -63
21 -28 36 -61 40 -90 6 -40 10 -47 30 -47 13 0 29 -7 36 -15 11 -13 7 -21 -28
-51 -22 -19 -44 -44 -47 -55 -11 -32 -17 -16 -26 68 -10 98 -26 153 -43 153
-11 0 -10 -15 5 -72 20 -74 23 -143 11 -213 -6 -34 -11 -40 -35 -43 -32 -4
-31 -5 -11 63 12 43 13 62 4 95 -6 22 -9 44 -6 49 3 5 -2 30 -10 56 -11 31
-15 63 -11 96 9 77 38 114 52 69z m485 -55 c0 -15 6 -25 15 -25 21 0 40 -39
26 -53 -6 -6 -11 -19 -11 -29 0 -10 -6 -18 -12 -18 -7 0 -22 -3 -34 -6 -19 -5
-22 0 -27 40 -5 33 -2 56 10 81 20 41 33 45 33 10z m-815 -29 c64 -29 99 -71
115 -135 7 -28 15 -51 18 -51 4 0 15 14 24 30 27 47 84 37 113 -20 22 -42 19
-69 -16 -139 -17 -34 -29 -64 -27 -66 2 -3 20 1 40 7 65 20 118 -9 118 -63 0
-35 -30 -98 -71 -150 -25 -31 -36 -38 -74 -41 l-45 -3 0 36 c0 21 9 50 23 70
36 54 39 59 28 59 -6 0 -21 -16 -34 -36 l-25 -35 -21 69 c-25 83 -27 132 -6
172 10 20 12 30 4 30 -6 0 -16 -13 -22 -30 -6 -16 -14 -30 -18 -30 -3 0 -38
62 -78 138 -44 85 -68 124 -64 102 l6 -34 -28 22 c-29 23 -55 29 -55 13 0 -5
17 -23 38 -41 l37 -31 -30 6 c-16 3 -38 8 -47 11 -10 3 -18 1 -18 -3 0 -5 23
-15 52 -23 28 -7 62 -23 74 -35 23 -23 95 -159 109 -205 7 -25 7 -24 -26 6
-48 44 -80 64 -104 64 -15 0 -12 -5 15 -21 110 -67 147 -120 157 -224 7 -75
-1 -80 -62 -44 -47 28 -57 18 -10 -11 47 -29 35 -42 -43 -46 l-59 -3 8 45 c6
32 4 57 -5 85 l-14 41 40 -4 c67 -5 55 17 -32 63 -85 44 -104 63 -115 117 -10
46 7 62 66 62 26 0 50 4 53 9 3 5 -22 18 -55 30 -98 36 -159 102 -159 174 0
33 26 67 60 80 38 14 117 6 165 -17z m1202 -17 c125 -47 83 -179 -77 -240 -27
-10 -61 -19 -75 -19 -14 0 -25 -4 -25 -10 0 -5 13 -10 29 -10 76 0 117 -41 90
-91 -19 -37 -48 -56 -137 -89 -48 -19 -81 -37 -79 -43 2 -7 28 -14 59 -17 82
-7 104 -34 74 -88 -23 -42 -65 -62 -134 -62 -34 0 -78 -7 -97 -14 -68 -29 -32
16 45 54 25 13 39 25 32 27 -6 3 -33 -7 -59 -21 -25 -15 -47 -25 -48 -24 -6 7
38 155 53 180 19 32 65 66 137 102 31 16 42 25 30 25 -11 0 -44 -13 -74 -29
-30 -17 -56 -28 -59 -26 -6 7 33 69 85 138 33 43 53 60 81 68 117 32 112 30
60 27 -37 -2 -44 1 -35 11 6 7 23 20 39 28 15 8 28 19 28 24 0 15 -33 12 -59
-6 -23 -17 -23 -17 -16 16 10 44 -10 31 -26 -18 -7 -20 -31 -59 -53 -87 -23
-27 -55 -67 -70 -89 l-29 -39 -11 33 c-6 19 -17 35 -24 38 -9 3 -8 -7 4 -38
17 -42 17 -42 -16 -123 -18 -45 -36 -86 -40 -90 -4 -5 -17 8 -29 29 -29 49
-38 37 -10 -15 18 -35 20 -52 15 -98 -4 -31 -10 -63 -15 -71 -7 -13 -10 -12
-19 5 -6 11 -28 40 -48 64 -78 93 -104 191 -62 236 25 27 54 29 105 8 20 -8
38 -14 40 -12 2 2 -4 24 -13 48 -9 24 -16 67 -17 96 -1 42 3 57 23 78 35 37
89 32 109 -9 13 -28 14 -28 27 -11 8 10 14 25 14 32 0 24 65 86 115 109 54 26
117 31 162 13z m-461 -66 c-14 -105 -18 -123 -27 -123 -10 0 -49 73 -49 92 0
14 60 78 73 78 5 0 6 -21 3 -47z m-93 -93 c43 -34 49 -150 8 -150 -27 0 -58
-40 -66 -85 -4 -22 -11 -46 -17 -52 -8 -10 -6 -13 5 -13 31 0 30 -39 -5 -110
-18 -38 -36 -70 -39 -70 -8 0 -19 80 -19 140 0 81 10 108 59 155 50 49 43 62
-10 18 l-32 -28 7 30 c13 51 58 145 70 145 7 0 17 -5 24 -12 9 -9 12 -9 12 1
0 7 -9 15 -20 18 -11 3 -20 12 -20 19 0 19 13 17 43 -6z m-850 -10 c21 -17 54
-80 42 -80 -3 0 -19 9 -37 20 -18 11 -45 20 -60 20 -32 0 -36 15 -11 42 21 23
34 23 66 -2z m757 5 c11 -13 8 -28 -15 -85 -26 -65 -45 -82 -45 -40 0 10 -5
22 -11 26 -9 5 -10 -1 -4 -22 4 -16 10 -89 12 -163 l5 -134 -32 26 c-49 42
-60 32 -12 -11 38 -33 45 -45 62 -117 10 -44 17 -82 15 -84 -3 -2 -18 2 -34 9
-31 12 -111 100 -92 100 22 0 10 19 -24 40 -19 12 -35 25 -35 30 0 5 13 30 30
57 32 51 37 96 25 198 -6 44 -3 55 24 98 29 44 81 87 107 87 6 0 17 -7 24 -15z
m832 -77 c60 -42 98 -110 98 -179 0 -14 -11 -47 -25 -73 -30 -57 -32 -70 -6
-56 55 29 109 -9 96 -68 -8 -39 -48 -75 -117 -107 -63 -29 -81 -45 -49 -45 33
0 81 -48 81 -81 0 -28 -40 -79 -61 -79 -16 0 -10 15 11 28 31 19 24 33 -7 16
-26 -15 -34 -14 -98 4 l-70 20 43 7 c23 4 45 12 49 18 6 10 -17 7 -82 -9 l-28
-7 38 69 c48 86 61 101 108 126 22 11 36 22 33 25 -3 3 -24 -4 -46 -15 -36
-18 -41 -18 -35 -4 4 10 16 55 27 102 10 47 30 107 44 134 14 26 22 51 18 55
-4 3 -9 1 -11 -5 -2 -6 -10 -20 -18 -30 -13 -18 -14 -17 -15 12 0 31 -21 60
-33 48 -3 -3 -3 -29 0 -58 l5 -51 -27 38 c-36 52 -45 38 -10 -15 20 -30 28
-54 27 -83 0 -44 -33 -164 -56 -204 -12 -22 -13 -21 -19 27 -3 28 -15 68 -26
89 -24 45 -27 32 -6 -28 38 -106 11 -219 -62 -257 -49 -27 -67 -5 -64 75 1 34
-5 49 -30 78 -17 19 -28 35 -25 35 18 0 67 -32 76 -50 13 -25 40 -26 40 -2 0
10 -11 46 -25 80 -29 71 -31 111 -10 152 20 39 64 41 107 5 28 -23 48 -32 48
-20 0 3 -14 30 -31 59 -37 66 -43 158 -15 201 35 53 101 63 158 23z m-1583
-24 c57 -48 62 -145 11 -244 -24 -48 -10 -53 30 -10 17 18 38 30 53 30 69 0
94 -81 58 -184 -37 -104 -25 -122 38 -56 43 46 91 56 91 20 0 -11 -7 -23 -15
-26 -10 -4 -11 -10 -5 -22 6 -10 14 -30 20 -45 5 -16 14 -26 19 -23 5 3 11 -1
15 -9 4 -11 -2 -15 -27 -15 -18 0 -43 -7 -55 -16 -22 -15 -23 -15 -16 12 5 19
4 25 -5 20 -6 -4 -11 -15 -11 -24 0 -37 -15 -45 -51 -27 -45 23 -68 44 -86 78
-17 34 -19 118 -3 177 6 23 9 44 6 47 -10 10 -30 -45 -36 -102 l-7 -60 -37 79
c-49 102 -57 170 -26 220 12 20 20 41 18 48 -2 6 -15 -6 -29 -28 l-24 -39 -3
53 c-4 70 -32 66 -32 -5 l0 -26 -21 27 c-12 15 -24 25 -27 22 -2 -3 8 -22 23
-42 15 -20 40 -77 55 -128 15 -50 31 -99 35 -110 8 -17 7 -17 -24 -1 -18 9
-40 14 -49 12 -15 -3 -14 -5 3 -11 71 -26 87 -39 130 -105 25 -38 45 -72 45
-75 0 -4 -11 -4 -25 0 -14 3 -48 -1 -76 -10 -27 -9 -54 -14 -59 -11 -6 4 -10
-1 -10 -9 0 -9 -6 -16 -14 -16 -8 0 -16 -5 -18 -12 -7 -21 -28 2 -28 31 0 28
38 72 73 84 27 10 13 23 -35 36 -83 21 -141 73 -140 126 0 42 21 58 69 52 24
-2 43 -2 43 2 0 3 -14 26 -30 50 -97 143 65 370 189 265z m1390 -173 c9 -16 6
-19 -32 -24 -29 -4 -48 -14 -62 -31 -18 -23 -23 -24 -38 -13 -27 19 -12 41 41
64 60 27 79 28 91 4z m-519 -172 c0 -4 -11 -25 -25 -45 -32 -47 -20 -63 26
-35 19 12 39 21 46 21 17 0 28 -41 13 -50 -7 -4 -10 -12 -7 -16 3 -5 -6 -25
-19 -44 -13 -19 -24 -29 -24 -22 0 7 -14 12 -34 12 -59 0 -84 15 -97 58 -13
44 2 106 41 170 l21 34 29 -37 c17 -21 30 -41 30 -46z m-334 -57 c57 -29 95
-74 109 -129 13 -51 29 -66 38 -34 5 20 52 49 63 39 3 -3 -6 -23 -21 -43 -14
-21 -25 -47 -25 -59 -1 -12 -11 -41 -24 -66 l-23 -44 -22 43 c-12 23 -37 66
-56 95 -19 30 -41 78 -49 107 -14 48 -15 50 -13 17 3 -43 -2 -47 -28 -18 -10
11 -27 20 -39 20 -17 0 -14 -6 19 -40 40 -41 36 -47 -23 -31 -17 5 -32 7 -32
3 0 -4 27 -15 60 -25 50 -14 65 -25 91 -60 17 -23 40 -60 50 -82 17 -36 17
-41 3 -52 -13 -9 -24 -8 -52 8 -51 27 -76 24 -27 -4 22 -12 40 -28 39 -35 -1
-7 -2 -30 -2 -52 l-2 -40 -58 29 c-140 71 -165 181 -40 181 26 0 48 3 48 8 0
4 -27 18 -60 31 -102 39 -150 93 -150 169 0 38 23 70 60 86 28 11 126 -2 166
-22z m663 -45 c13 -6 33 -24 44 -39 18 -24 19 -32 8 -67 -7 -25 -27 -53 -53
-75 -40 -35 -60 -44 -147 -66 -33 -9 -41 -14 -30 -21 8 -5 27 -9 42 -9 46 0
67 -17 67 -53 0 -53 -37 -84 -153 -127 -30 -12 -61 -27 -67 -35 -11 -13 -6
-15 31 -15 52 0 113 -28 117 -54 3 -11 -11 -34 -35 -58 -33 -35 -83 -64 -257
-146 -12 -6 3 69 19 94 7 12 34 31 59 43 25 11 46 24 46 27 0 11 -55 -7 -84
-28 l-29 -21 7 36 c25 136 69 198 173 248 36 17 63 32 61 35 -8 8 -77 -17
-113 -42 -21 -14 -39 -23 -41 -21 -5 4 59 110 93 156 28 36 92 70 133 71 14 0
32 5 40 11 11 8 1 9 -35 4 l-50 -6 45 40 c48 43 38 55 -19 20 -36 -22 -37 -20
-16 36 7 18 6 18 -7 5 -9 -8 -20 -29 -26 -46 -5 -18 -43 -74 -84 -125 l-73
-93 -5 34 c-3 18 -11 35 -18 38 -9 3 -10 -3 -2 -23 17 -45 11 -79 -26 -161
l-36 -78 -19 36 c-10 20 -24 40 -30 43 -6 4 -2 -10 9 -31 29 -58 32 -83 18
-149 -11 -57 -13 -59 -25 -37 -7 13 -28 41 -46 61 -74 82 -109 206 -69 245 18
18 85 21 116 5 29 -16 31 -7 14 52 -25 83 -21 125 14 160 40 40 79 37 100 -8
8 -18 18 -33 22 -33 3 0 12 16 18 36 16 49 66 103 115 125 47 22 148 25 184 6z
m-858 -180 c25 -17 33 -30 32 -48 -9 -89 -8 -98 22 -129 17 -17 45 -40 63 -52
35 -22 42 -38 14 -38 -10 0 -23 -5 -30 -12 -8 -8 -21 -5 -51 16 -43 30 -71 78
-71 121 0 14 -4 24 -9 20 -5 -3 -7 -21 -4 -40 3 -19 2 -35 -1 -35 -23 0 -197
89 -229 117 -43 39 -71 45 -37 8 l23 -25 -46 0 c-65 0 -59 -15 11 -26 l57 -10
-30 -12 c-16 -7 -36 -15 -44 -18 -8 -2 -11 -7 -8 -11 4 -3 20 0 38 7 60 25
108 17 208 -35 126 -67 132 -77 44 -69 -45 4 -77 3 -89 -4 -15 -9 -7 -11 43
-12 34 0 84 -5 112 -12 49 -11 51 -13 51 -46 0 -23 10 -47 31 -73 31 -39 31
-39 7 -40 -14 0 -5 -5 22 -13 46 -12 116 -52 137 -78 18 -21 -228 -12 -275 10
-66 30 -62 91 8 127 55 29 37 38 -60 32 -102 -6 -147 3 -179 37 -32 34 -22 71
24 93 42 20 50 48 9 33 -48 -18 -173 -12 -221 11 -90 44 -89 131 3 185 84 50
187 41 265 -21 24 -19 47 -35 51 -35 4 0 4 15 1 34 -4 27 -1 36 18 50 32 22
50 20 90 -7z m1184 -26 c49 -22 95 -74 95 -106 0 -37 -45 -82 -102 -101 -50
-16 -138 -16 -195 2 -33 9 -28 -8 9 -31 61 -39 62 -66 5 -108 -28 -22 -78 -26
-187 -15 -41 4 -66 11 -68 19 -3 8 -11 22 -19 31 -13 15 -11 18 24 27 21 6 74
11 118 12 71 1 76 2 45 11 -19 6 -62 8 -95 5 l-60 -5 25 20 c29 23 128 75 179
93 29 10 46 10 86 -1 72 -19 99 -16 41 5 -38 13 -46 19 -32 24 10 4 28 7 41 7
31 0 55 10 55 22 0 6 -19 8 -45 6 -50 -4 -56 2 -22 25 12 8 19 18 15 22 -3 3
-23 -9 -45 -28 -21 -19 -81 -53 -133 -77 -134 -59 -124 -56 -111 -32 17 32 13
74 -10 99 l-22 22 28 11 c15 6 41 20 56 31 l29 20 0 -35 c0 -41 9 -45 36 -15
53 59 176 78 259 40z m-1965 -97 c98 -45 180 -141 193 -226 l5 -36 -48 -7
c-27 -4 -76 -19 -109 -35 l-60 -29 -20 32 c-11 18 -50 57 -88 87 -111 91 -130
166 -54 217 46 31 110 30 181 -3z m1016 -181 c22 -25 64 -93 58 -93 -3 0 -15
5 -27 11 -15 7 -13 2 8 -16 17 -14 42 -36 58 -49 23 -20 27 -31 27 -74 l0 -51
-47 34 c-27 19 -77 54 -112 77 -74 49 -101 81 -104 123 -1 22 4 32 23 42 36
19 97 16 116 -4z m-488 -77 c22 -12 19 -13 -45 -24 -121 -20 -161 -24 -182
-17 -35 11 -23 25 22 25 23 0 65 7 92 14 64 18 84 18 113 2z m-265 -43 l32
-16 -81 -18 c-95 -20 -141 -39 -173 -70 l-24 -22 24 -20 c38 -30 108 -63 189
-87 119 -36 112 -31 91 -59 l-19 -25 -83 23 c-160 44 -249 105 -249 171 0 47
84 101 194 125 33 7 62 14 64 14 2 1 17 -6 35 -16z m1329 -15 c39 -27 47 -66
19 -90 -36 -28 -93 -39 -198 -36 l-97 3 78 38 c56 28 85 50 104 77 29 43 44
44 94 8z m-922 -8 c0 -23 -5 -31 -22 -34 -44 -9 -217 -26 -267 -26 -47 0 -51
2 -51 24 0 22 5 25 53 31 28 3 99 12 157 19 58 8 111 14 118 15 7 1 12 -11 12
-29z m-352 -42 c-3 -19 -12 -24 -58 -31 -30 -4 -78 -19 -107 -33 -44 -21 -55
-23 -72 -12 -12 7 -21 16 -21 20 0 20 169 76 233 77 24 1 28 -3 25 -21z m416
-80 c34 -18 65 -22 174 -26 l133 -5 -3 -31 -3 -31 -100 -12 c-125 -15 -363
-16 -475 -2 -122 14 -305 63 -305 80 0 23 123 47 330 67 185 17 190 17 199 -1
6 -10 28 -28 50 -39z m746 -42 c-13 -12 -162 -66 -183 -66 -5 0 -7 10 -5 22 2
17 16 25 63 39 33 9 78 17 100 18 34 1 37 -1 25 -13z m-1452 -60 c36 -24 146
-65 228 -86 40 -10 41 -11 47 -62 4 -28 5 -54 2 -56 -7 -7 -163 57 -247 102
l-78 41 0 43 c0 23 2 42 5 42 3 0 22 -11 43 -24z m1447 -40 c-6 -48 -10 -56
-29 -56 -11 0 -43 -7 -70 -15 -80 -24 -88 -22 -84 26 l3 41 90 33 c50 17 91
31 93 29 2 -1 1 -27 -3 -58z m-435 4 c0 -14 -9 -20 -32 -24 -18 -3 -75 -12
-127 -20 -52 -9 -98 -13 -103 -10 -4 3 -8 13 -8 24 0 15 12 19 88 25 48 4 105
11 127 15 22 4 43 8 48 9 4 0 7 -8 7 -19z m-440 -7 c141 -6 159 -10 160 -40 0
-25 -392 -14 -417 10 -2 3 1 15 7 27 11 20 17 22 58 16 26 -4 112 -9 192 -13z
m635 -35 c2 -2 4 -32 6 -68 l4 -65 -65 -3 c-36 -1 -70 1 -76 5 -6 5 -13 39
-16 77 l-4 69 74 -6 c41 -3 75 -7 77 -9z m-995 -132 c155 -51 237 -59 458 -46
103 6 216 15 252 20 36 5 71 10 78 10 13 0 17 -26 4 -34 -15 -9 -176 -27 -334
-36 -286 -17 -430 9 -630 112 -63 32 -78 44 -78 63 0 22 2 22 73 -16 39 -21
119 -54 177 -73z m800 65 l0 -49 -77 -10 c-190 -26 -181 -26 -185 0 -2 13 -1
37 0 54 l4 32 86 9 c48 6 106 11 130 12 l42 1 0 -49z m-442 17 c111 1 152 -2
152 -11 0 -7 -3 -28 -6 -47 l-6 -35 -188 5 c-107 3 -193 9 -198 15 -5 6 -12
27 -15 49 l-6 38 57 -7 c31 -4 126 -7 210 -7z m851 -25 c-11 -32 -30 -43 -108
-63 -28 -7 -47 -8 -53 -2 -6 6 4 12 29 17 21 3 49 13 63 21 24 15 24 15 -15
10 -22 -3 -51 -9 -64 -13 -17 -4 -22 -2 -19 8 4 11 166 61 176 54 1 -1 -3 -16
-9 -32z m-1363 -90 c15 -9 74 -33 133 -53 l106 -35 3 -39 3 -38 -48 6 c-96 14
-200 47 -231 74 -25 22 -32 38 -38 81 l-6 55 26 -17 c14 -9 38 -25 52 -34z
m1319 -32 c-19 -59 -27 -67 -82 -76 l-43 -7 0 39 c0 54 17 72 80 87 30 7 57
11 59 10 1 -2 -4 -25 -14 -53z m-355 -75 l0 -53 -122 -17 c-179 -24 -168 -26
-168 38 l0 54 103 12 c56 6 107 13 112 15 6 2 25 4 43 4 l32 1 0 -54z m-324
10 c1 0 -1 -19 -5 -41 l-6 -40 -167 0 c-91 0 -168 2 -171 5 -2 3 -7 24 -11 48
l-6 42 182 -6 c101 -4 184 -7 184 -8z m514 -106 l0 -110 -70 0 -70 0 0 110 0
110 70 0 70 0 0 -110z m-1038 20 c207 -48 591 -55 816 -14 27 5 32 3 32 -14 0
-24 -12 -28 -154 -43 -86 -10 -158 -10 -321 -1 -301 17 -460 47 -516 98 -32
29 -21 36 21 14 22 -11 77 -29 122 -40z m1168 50 c0 -19 -50 -61 -68 -58 -9 2
-18 13 -20 24 -3 18 4 24 35 32 51 13 53 14 53 2z m-1202 -90 c52 -17 114 -33
138 -37 43 -6 44 -6 44 -44 0 -36 -2 -39 -28 -39 -31 0 -150 38 -199 64 -33
17 -63 52 -63 73 0 17 -1 17 108 -17z m1172 4 c0 -24 -18 -52 -43 -65 -21 -12
-21 -11 -4 8 9 11 17 26 17 34 0 12 -2 11 -10 -1 -8 -12 -10 -11 -10 7 0 12 6
24 13 26 24 10 37 7 37 -9z m-295 -132 c-5 -6 -226 -31 -273 -32 -33 0 -33 0
-30 42 l3 43 125 12 c69 7 134 14 145 15 16 2 21 -5 27 -36 4 -22 6 -42 3 -44z
m-462 62 c135 -7 138 -7 133 -28 -3 -12 -6 -31 -6 -43 0 -21 -4 -23 -62 -23
-34 0 -101 5 -149 11 -85 11 -87 12 -93 41 -10 53 -8 61 17 55 12 -3 84 -9
160 -13z m567 -69 c0 -3 -10 -10 -22 -15 -17 -6 -3 -9 52 -9 83 -1 87 -19 6
-28 -66 -8 -96 2 -96 32 0 21 5 25 30 25 17 0 30 -2 30 -5z"/>
</g>
</svg>
